<?xml version="1.0" standalone="no"?>
<!DOCTYPE svg PUBLIC "-//W3C//DTD SVG 20010904//EN"
 "http://www.w3.org/TR/2001/REC-SVG-20010904/DTD/svg10.dtd">
<svg version="1.0" xmlns="http://www.w3.org/2000/svg"
 width="512.000000pt" height="512.000000pt" viewBox="0 0 512.000000 512.000000"
 preserveAspectRatio="xMidYMid meet">
<metadata>
Created by potrace 1.14, written by Peter Selinger 2001-2017
</metadata>
<g transform="translate(0.000000,512.000000) scale(0.100000,-0.100000)"
fill="#000000" stroke="none">
<path d="M1610 5113 c-86 -14 -194 -38 -250 -55 -123 -39 -323 -142 -353 -182
-4 -6 -5 -26 -3 -45 5 -31 1 -39 -47 -82 -32 -30 -58 -46 -67 -43 -52 20 -72
16 -108 -23 -94 -100 -186 -244 -243 -383 -23 -56 -42 -85 -75 -114 -64 -55
-87 -105 -92 -201 l-4 -80 -57 -1 c-94 -3 -169 -54 -201 -138 -19 -50 -14
-219 8 -269 36 -82 104 -122 213 -126 34 -1 37 -3 41 -36 5 -43 5 -43 -58 -83
-148 -93 -222 -238 -212 -414 5 -72 11 -100 40 -160 27 -58 33 -80 27 -107
-11 -53 -1 -165 20 -227 27 -77 73 -145 135 -201 50 -46 53 -51 59 -109 34
-330 401 -519 700 -362 28 14 33 13 118 -29 50 -25 133 -55 191 -70 l103 -25
-1 -52 c-1 -28 -2 -54 -3 -58 0 -5 -36 -8 -78 -8 -411 0 -797 -283 -923 -678
-17 -51 -33 -110 -36 -130 -2 -20 -7 -52 -10 -71 -2 -19 -5 -123 -5 -231 -1
-161 2 -203 15 -227 23 -46 71 -81 119 -88 23 -3 1001 -5 2174 -3 2032 3 2133
4 2150 21 16 16 18 42 19 270 0 222 3 316 19 597 4 70 13 259 20 405 7 153 15
306 20 390 2 44 7 134 10 200 8 161 13 265 22 420 9 174 10 440 1 492 -18 107
-42 179 -103 307 -29 61 -68 90 -107 81 -19 -4 -32 6 -75 59 -47 57 -52 67
-46 100 8 50 -11 74 -109 140 -240 159 -517 214 -790 158 l-88 -18 -1 45 c-1
57 -3 67 -21 111 -32 76 -106 121 -199 124 l-59 1 0 67 c0 94 -21 142 -91 210
-33 31 -59 61 -59 67 0 13 -30 83 -67 156 -118 231 -348 458 -588 578 -72 36
-245 100 -245 91 0 -2 -8 -1 -17 5 -10 5 -36 11 -58 15 -22 3 -51 8 -65 12
-27 7 -570 14 -610 7z m1374 -3238 c3 -55 8 -149 11 -210 3 -60 7 -146 10
-190 3 -44 7 -129 10 -188 l5 -109 -27 22 c-185 144 -371 215 -592 228 l-115
7 0 53 c-1 30 3 57 9 61 5 5 30 11 55 15 58 9 181 51 250 86 123 63 284 198
348 293 14 20 26 36 28 35 1 -2 5 -48 8 -103z"/>
</g>
</svg>
